{
    "asset" : {
        "generator" : "Khronos glTF Blender I/O v1.5.17",
        "version" : "2.0"
    },
    "scene" : 0,
    "scenes" : [
        {
            "name" : "Scene",
            "nodes" : [
                8,
                9,
                10
            ]
        }
    ],
    "nodes" : [
        {
            "mesh" : 0,
            "name" : "pCylinder36_blinn1_0"
        },
        {
            "mesh" : 1,
            "name" : "pCylinder36_lambert3_0"
        },
        {
            "mesh" : 2,
            "name" : "pCylinder36_phongE12_0"
        },
        {
            "mesh" : 3,
            "name" : "pCylinder36_phongE1_0"
        },
        {
            "mesh" : 4,
            "name" : "pCylinder36_phongE2_0"
        },
        {
            "children" : [
                0,
                1,
                2,
                3,
                4
            ],
            "name" : "pCylinder36",
            "scale" : [
                10,
                10,
                10
            ]
        },
        {
            "children" : [
                5
            ],
            "name" : "RootNode"
        },
        {
            "children" : [
                6
            ],
            "name" : "571eef3d2c13416a996816f5fb3a3f70.fbx",
            "rotation" : [
                0.7071068286895752,
                0,
                0,
                0.7071068286895752
            ]
        },
        {
            "children" : [
                7
            ],
            "name" : "Sketchfab_model",
            "rotation" : [
                -0.7071068286895752,
                0,
                0,
                0.7071068286895752
            ],
            "translation" : [
                0,
                -14.078020095825195,
                -61.138221740722656
            ]
        },
        {
            "name" : "Light",
            "rotation" : [
                0.16907575726509094,
                0.7558803558349609,
                -0.27217137813568115,
                0.570947527885437
            ],
            "translation" : [
                4.076245307922363,
                5.903861999511719,
                -1.0054539442062378
            ]
        },
        {
            "name" : "Camera",
            "rotation" : [
                0.483536034822464,
                0.33687159419059753,
                -0.20870360732078552,
                0.7804827094078064
            ],
            "translation" : [
                7.358891487121582,
                4.958309173583984,
                6.925790786743164
            ]
        }
    ],
    "materials" : [
        {
            "doubleSided" : true,
            "name" : "blinn1",
            "pbrMetallicRoughness" : {
                "baseColorFactor" : [
                    0.22300000488758087,
                    0.06891229748725891,
                    0.013156999833881855,
                    1
                ],
                "metallicFactor" : 0,
                "roughnessFactor" : 0.9207483530044556
            }
        },
        {
            "doubleSided" : true,
            "name" : "lambert3",
            "pbrMetallicRoughness" : {
                "baseColorFactor" : [
                    0.734000027179718,
                    0.734000027179718,
                    0.734000027179718,
                    1
                ],
                "metallicFactor" : 0,
                "roughnessFactor" : 0.6000000238418579
            }
        },
        {
            "doubleSided" : true,
            "name" : "phongE12",
            "pbrMetallicRoughness" : {
                "baseColorFactor" : [
                    0.16099999845027924,
                    0.07169479876756668,
                    0.025116000324487686,
                    1
                ],
                "metallicFactor" : 0,
                "roughnessFactor" : 0.8942628502845764
            }
        },
        {
            "doubleSided" : true,
            "name" : "phongE1",
            "pbrMetallicRoughness" : {
                "baseColorFactor" : [
                    0.7020000219345093,
                    0.3287929892539978,
                    0.1937520056962967,
                    1
                ],
                "metallicFactor" : 0,
                "roughnessFactor" : 0.8942628502845764
            }
        },
        {
            "doubleSided" : true,
            "name" : "phongE2",
            "pbrMetallicRoughness" : {
                "baseColorFactor" : [
                    1,
                    0.30902400612831116,
                    0.05899890139698982,
                    1
                ],
                "metallicFactor" : 0,
                "roughnessFactor" : 0.8942628502845764
            }
        }
    ],
    "meshes" : [
        {
            "name" : "pCylinder36_blinn1_0",
            "primitives" : [
                {
                    "attributes" : {
                        "POSITION" : 0,
                        "NORMAL" : 1,
                        "TEXCOORD_0" : 2
                    },
                    "indices" : 3,
                    "material" : 0
                }
            ]
        },
        {
            "name" : "pCylinder36_lambert3_0",
            "primitives" : [
                {
                    "attributes" : {
                        "POSITION" : 4,
                        "NORMAL" : 5,
                        "TEXCOORD_0" : 6
                    },
                    "indices" : 7,
                    "material" : 1
                }
            ]
        },
        {
            "name" : "pCylinder36_phongE12_0",
            "primitives" : [
                {
                    "attributes" : {
                        "POSITION" : 8,
                        "NORMAL" : 9,
                        "TEXCOORD_0" : 10
                    },
                    "indices" : 11,
                    "material" : 2
                }
            ]
        },
        {
            "name" : "pCylinder36_phongE1_0",
            "primitives" : [
                {
                    "attributes" : {
                        "POSITION" : 12,
                        "NORMAL" : 13,
                        "TEXCOORD_0" : 14
                    },
                    "indices" : 15,
                    "material" : 3
                }
            ]
        },
        {
            "name" : "pCylinder36_phongE2_0",
            "primitives" : [
                {
                    "attributes" : {
                        "POSITION" : 16,
                        "NORMAL" : 17,
                        "TEXCOORD_0" : 18
                    },
                    "indices" : 19,
                    "material" : 4
                }
            ]
        }
    ],
    "accessors" : [
        {
            "bufferView" : 0,
            "componentType" : 5126,
            "count" : 244,
            "max" : [
                11.315364837646484,
                2.419311046600342,
                13.455387115478516
            ],
            "min" : [
                -11.315364837646484,
                0.41930925846099854,
                -0.8660255074501038
            ],
            "type" : "VEC3"
        },
        {
            "bufferView" : 1,
            "componentType" : 5126,
            "count" : 244,
            "type" : "VEC3"
        },
        {
            "bufferView" : 2,
            "componentType" : 5126,
            "count" : 244,
            "type" : "VEC2"
        },
        {
            "bufferView" : 3,
            "componentType" : 5123,
            "count" : 288,
            "type" : "SCALAR"
        },
        {
            "bufferView" : 4,
            "componentType" : 5126,
            "count" : 211,
            "max" : [
                6.238800048828125,
                18.331275939941406,
                12.507484436035156
            ],
            "min" : [
                3.842042922973633,
                7.990292549133301,
                0.1012115478515625
            ],
            "type" : "VEC3"
        },
        {
            "bufferView" : 5,
            "componentType" : 5126,
            "count" : 211,
            "type" : "VEC3"
        },
        {
            "bufferView" : 6,
            "componentType" : 5126,
            "count" : 211,
            "type" : "VEC2"
        },
        {
            "bufferView" : 7,
            "componentType" : 5123,
            "count" : 258,
            "type" : "SCALAR"
        },
        {
            "bufferView" : 8,
            "componentType" : 5126,
            "count" : 104,
            "max" : [
                3.979694366455078,
                18.177967071533203,
                12.157035827636719
            ],
            "min" : [
                3.4664306640625,
                1.157684326171875,
                0.484405517578125
            ],
            "type" : "VEC3"
        },
        {
            "bufferView" : 9,
            "componentType" : 5126,
            "count" : 104,
            "type" : "VEC3"
        },
        {
            "bufferView" : 10,
            "componentType" : 5126,
            "count" : 104,
            "type" : "VEC2"
        },
        {
            "bufferView" : 11,
            "componentType" : 5123,
            "count" : 144,
            "type" : "SCALAR"
        },
        {
            "bufferView" : 12,
            "componentType" : 5126,
            "count" : 288,
            "max" : [
                12.914447784423828,
                2.419311046600342,
                13.455387115478516
            ],
            "min" : [
                -12.965841293334961,
                0.41930925846099854,
                -0.8660255074501038
            ],
            "type" : "VEC3"
        },
        {
            "bufferView" : 13,
            "componentType" : 5126,
            "count" : 288,
            "type" : "VEC3"
        },
        {
            "bufferView" : 14,
            "componentType" : 5126,
            "count" : 288,
            "type" : "VEC2"
        },
        {
            "bufferView" : 15,
            "componentType" : 5123,
            "count" : 288,
            "type" : "SCALAR"
        },
        {
            "bufferView" : 16,
            "componentType" : 5126,
            "count" : 160,
            "max" : [
                7.851602077484131,
                2.519226551055908,
                13.90595817565918
            ],
            "min" : [
                -6.7626872062683105,
                0.911817193031311,
                -1.2888383865356445
            ],
            "type" : "VEC3"
        },
        {
            "bufferView" : 17,
            "componentType" : 5126,
            "count" : 160,
            "type" : "VEC3"
        },
        {
            "bufferView" : 18,
            "componentType" : 5126,
            "count" : 160,
            "type" : "VEC2"
        },
        {
            "bufferView" : 19,
            "componentType" : 5123,
            "count" : 216,
            "type" : "SCALAR"
        }
    ],
    "bufferViews" : [
        {
            "buffer" : 0,
            "byteLength" : 2928,
            "byteOffset" : 0
        },
        {
            "buffer" : 0,
            "byteLength" : 2928,
            "byteOffset" : 2928
        },
        {
            "buffer" : 0,
            "byteLength" : 1952,
            "byteOffset" : 5856
        },
        {
            "buffer" : 0,
            "byteLength" : 576,
            "byteOffset" : 7808
        },
        {
            "buffer" : 0,
            "byteLength" : 2532,
            "byteOffset" : 8384
        },
        {
            "buffer" : 0,
            "byteLength" : 2532,
            "byteOffset" : 10916
        },
        {
            "buffer" : 0,
            "byteLength" : 1688,
            "byteOffset" : 13448
        },
        {
            "buffer" : 0,
            "byteLength" : 516,
            "byteOffset" : 15136
        },
        {
            "buffer" : 0,
            "byteLength" : 1248,
            "byteOffset" : 15652
        },
        {
            "buffer" : 0,
            "byteLength" : 1248,
            "byteOffset" : 16900
        },
        {
            "buffer" : 0,
            "byteLength" : 832,
            "byteOffset" : 18148
        },
        {
            "buffer" : 0,
            "byteLength" : 288,
            "byteOffset" : 18980
        },
        {
            "buffer" : 0,
            "byteLength" : 3456,
            "byteOffset" : 19268
        },
        {
            "buffer" : 0,
            "byteLength" : 3456,
            "byteOffset" : 22724
        },
        {
            "buffer" : 0,
            "byteLength" : 2304,
            "byteOffset" : 26180
        },
        {
            "buffer" : 0,
            "byteLength" : 576,
            "byteOffset" : 28484
        },
        {
            "buffer" : 0,
            "byteLength" : 1920,
            "byteOffset" : 29060
        },
        {
            "buffer" : 0,
            "byteLength" : 1920,
            "byteOffset" : 30980
        },
        {
            "buffer" : 0,
            "byteLength" : 1280,
            "byteOffset" : 32900
        },
        {
            "buffer" : 0,
            "byteLength" : 432,
            "byteOffset" : 34180
        }
    ],
    "buffers" : [
        {
            "byteLength" : 34612,
            "uri" : "untitled.bin"
        }
    ]
}
